<?xml version="1.0" encoding="utf-8"?>
<!-- Generator: Adobe Illustrator 27.2.0, SVG Export Plug-In . SVG Version: 6.00 Build 0)  -->
<svg version="1.1" id="Layer_1" xmlns="http://www.w3.org/2000/svg" xmlns:xlink="http://www.w3.org/1999/xlink" x="0px" y="0px"
	 viewBox="0 0 1200 720" style="enable-background:new 0 0 1200 720;" xml:space="preserve">
<style type="text/css">
	.st0{fill-rule:evenodd;clip-rule:evenodd;fill:#FF1C00;stroke:#000000;stroke-width:3;stroke-miterlimit:10;}
	.st1{fill-rule:evenodd;clip-rule:evenodd;fill:none;stroke:#000000;stroke-width:3;stroke-miterlimit:10;}
	.st2{fill-rule:evenodd;clip-rule:evenodd;fill:#FFF8FF;stroke:#000000;stroke-width:3;stroke-miterlimit:10;}
	.st3{font-family:'Regina';}
	.st4{font-size:80.4917px;}
</style>
<path class="st0" d="M518.66,151.16c-51.74-14.03-85.22,38.45-126.65,34.74c-3.19-0.12-3.6-0.84-7.2,0v-68
	C439.75,143.28,483.18,118.63,518.66,151.16z"/>
<path class="st1" d="M392.01,184.63v106.09c261.74-33.53,649.71-19.53,649.71,0.39c0,31.71-292.5,30.12-292.5,90.23
	c0,32.61,27.77,41.74,27.77,65.44c0,29.5-91.28,32.72-138.82,32.72c-150.89,0-479.89-28.48-479.89-95.19
	c0-46.32,96.92-75.47,226.53-92.66V184.63"/>
<path class="st1" d="M309.75,372.71c0.52,45.68,226.01,62.6,329.32,61.41c32.55-0.37,89.24-3.29,89.01-23.49
	c-0.19-16.22-13.49-22.26-13.74-44.59c-0.47-41.16,199.81-42.35,199.56-64.07c-0.18-15.8-356.68-22.09-521.88,19.15v22.12
	c5.35-1.01,11.72-1.59,18.57-1.59c18.93,0,34.27,4.47,34.27,9.99c0,5.52-15.35,9.99-34.27,9.99c-18.93,0-34.27-4.47-34.27-9.99
	c0-2.52,3.21-4.83,8.5-6.58v-22.07C338.91,335.28,309.51,351.54,309.75,372.71z"/>
<path class="st2" d="M461.04,358.36c10.44,0,18.95-8.51,18.95-18.95c0-10.43-8.51-18.95-18.95-18.95
	c-10.44,0-18.95,8.51-18.95,18.95C442.1,349.85,450.61,358.36,461.04,358.36z"/>
<line class="st1" x1="384.81" y1="322.99" x2="384.81" y2="291.65"/>
<line class="st1" x1="392.01" y1="321.13" x2="392.01" y2="290.72"/>
<text transform="matrix(1 0 0 1 309.7503 562.7219)" class="st3 st4">Emerald Golf Club</text>
<path class="st2" d="M392.01,184.63"/>
<path class="st2" d="M384.81,184.63"/>
</svg>
